<mxfile host="app.diagrams.net" agent="Mozilla/5.0 (Windows NT 10.0; Win64; x64) AppleWebKit/537.36 (KHTML, like Gecko) Chrome/126.0.0.0 Safari/537.36" version="25.0.3">
  <diagram name="PÃ¡gina-1" id="psYgvTsm89nE83PAFgN6">
    <mxGraphModel dx="1450" dy="833" grid="1" gridSize="10" guides="1" tooltips="1" connect="1" arrows="1" fold="1" page="1" pageScale="1" pageWidth="827" pageHeight="1169" math="0" shadow="0">
      <root>
        <mxCell id="0" />
        <mxCell id="1" parent="0" />
        <mxCell id="1LE-seEb9DOBYzf1abru-13" value="" style="outlineConnect=0;dashed=0;verticalLabelPosition=bottom;verticalAlign=top;align=center;html=1;shape=mxgraph.aws3.internet;fillColor=#D2D3D3;gradientColor=none;" vertex="1" parent="1">
          <mxGeometry x="20" y="60" width="79.5" height="79.5" as="geometry" />
        </mxCell>
        <mxCell id="1LE-seEb9DOBYzf1abru-15" value="" style="endArrow=classic;startArrow=classic;html=1;rounded=0;exitX=1;exitY=0.47;exitDx=0;exitDy=0;exitPerimeter=0;entryX=0;entryY=0.5;entryDx=0;entryDy=0;entryPerimeter=0;" edge="1" parent="1" source="1LE-seEb9DOBYzf1abru-13" target="1LE-seEb9DOBYzf1abru-3">
          <mxGeometry width="50" height="50" relative="1" as="geometry">
            <mxPoint x="1130" y="550" as="sourcePoint" />
            <mxPoint x="1180" y="500" as="targetPoint" />
          </mxGeometry>
        </mxCell>
        <mxCell id="1LE-seEb9DOBYzf1abru-3" value="" style="outlineConnect=0;dashed=0;verticalLabelPosition=bottom;verticalAlign=top;align=center;html=1;shape=mxgraph.aws3.internet_gateway;fillColor=#F58534;gradientColor=none;" vertex="1" parent="1">
          <mxGeometry x="169" y="60" width="69" height="72" as="geometry" />
        </mxCell>
        <mxCell id="1LE-seEb9DOBYzf1abru-17" value="" style="endArrow=classic;startArrow=classic;html=1;rounded=0;exitX=1;exitY=0.5;exitDx=0;exitDy=0;exitPerimeter=0;fontStyle=1" edge="1" parent="1" source="1LE-seEb9DOBYzf1abru-3" target="1LE-seEb9DOBYzf1abru-20">
          <mxGeometry width="50" height="50" relative="1" as="geometry">
            <mxPoint x="154.5" y="120" as="sourcePoint" />
            <mxPoint x="290" y="172" as="targetPoint" />
          </mxGeometry>
        </mxCell>
        <mxCell id="1LE-seEb9DOBYzf1abru-18" value="VPC" style="points=[[0,0],[0.25,0],[0.5,0],[0.75,0],[1,0],[1,0.25],[1,0.5],[1,0.75],[1,1],[0.75,1],[0.5,1],[0.25,1],[0,1],[0,0.75],[0,0.5],[0,0.25]];outlineConnect=0;gradientColor=none;html=1;whiteSpace=wrap;fontSize=12;fontStyle=0;container=0;pointerEvents=0;collapsible=0;recursiveResize=0;shape=mxgraph.aws4.group;grIcon=mxgraph.aws4.group_vpc2;strokeColor=#8C4FFF;fillColor=none;verticalAlign=top;align=left;spacingLeft=30;fontColor=#AAB7B8;dashed=0;movable=1;resizable=1;rotatable=1;deletable=1;editable=1;locked=0;connectable=1;" vertex="1" parent="1">
          <mxGeometry x="140" y="20" width="760" height="510" as="geometry" />
        </mxCell>
        <mxCell id="1LE-seEb9DOBYzf1abru-33" value="" style="endArrow=classic;startArrow=classic;html=1;rounded=0;fontStyle=1;entryX=0;entryY=0.5;entryDx=0;entryDy=0;entryPerimeter=0;" edge="1" parent="1" source="1LE-seEb9DOBYzf1abru-13" target="1LE-seEb9DOBYzf1abru-32">
          <mxGeometry width="50" height="50" relative="1" as="geometry">
            <mxPoint x="100" y="130" as="sourcePoint" />
            <mxPoint x="76" y="438" as="targetPoint" />
          </mxGeometry>
        </mxCell>
        <mxCell id="1LE-seEb9DOBYzf1abru-86" value="" style="group" vertex="1" connectable="0" parent="1">
          <mxGeometry x="420" y="309.5" width="151" height="192" as="geometry" />
        </mxCell>
        <mxCell id="1LE-seEb9DOBYzf1abru-87" value="" style="aspect=fixed;sketch=0;html=1;dashed=0;whitespace=wrap;verticalLabelPosition=bottom;verticalAlign=top;fillColor=#2875E2;strokeColor=#ffffff;points=[[0.005,0.63,0],[0.1,0.2,0],[0.9,0.2,0],[0.5,0,0],[0.995,0.63,0],[0.72,0.99,0],[0.5,1,0],[0.28,0.99,0]];shape=mxgraph.kubernetes.icon2;prIcon=pod" vertex="1" parent="1LE-seEb9DOBYzf1abru-86">
          <mxGeometry x="31" y="120" width="50" height="48" as="geometry" />
        </mxCell>
        <mxCell id="1LE-seEb9DOBYzf1abru-88" value="" style="aspect=fixed;sketch=0;html=1;dashed=0;whitespace=wrap;verticalLabelPosition=bottom;verticalAlign=top;fillColor=#2875E2;strokeColor=#ffffff;points=[[0.005,0.63,0],[0.1,0.2,0],[0.9,0.2,0],[0.5,0,0],[0.995,0.63,0],[0.72,0.99,0],[0.5,1,0],[0.28,0.99,0]];shape=mxgraph.kubernetes.icon2;prIcon=pod" vertex="1" parent="1LE-seEb9DOBYzf1abru-86">
          <mxGeometry x="96" y="120" width="50" height="48" as="geometry" />
        </mxCell>
        <mxCell id="1LE-seEb9DOBYzf1abru-89" value="pod" style="text;html=1;align=center;verticalAlign=middle;whiteSpace=wrap;rounded=0;" vertex="1" parent="1LE-seEb9DOBYzf1abru-86">
          <mxGeometry x="26" y="162" width="60" height="30" as="geometry" />
        </mxCell>
        <mxCell id="1LE-seEb9DOBYzf1abru-90" value="pod" style="text;html=1;align=center;verticalAlign=middle;whiteSpace=wrap;rounded=0;" vertex="1" parent="1LE-seEb9DOBYzf1abru-86">
          <mxGeometry x="91" y="162" width="60" height="30" as="geometry" />
        </mxCell>
        <mxCell id="1LE-seEb9DOBYzf1abru-91" value="" style="outlineConnect=0;dashed=0;verticalLabelPosition=bottom;verticalAlign=top;align=center;html=1;shape=mxgraph.aws3.application_load_balancer;fillColor=#F58534;gradientColor=none;" vertex="1" parent="1LE-seEb9DOBYzf1abru-86">
          <mxGeometry x="60" width="69" height="72" as="geometry" />
        </mxCell>
        <mxCell id="1LE-seEb9DOBYzf1abru-92" value="products&lt;br&gt;service" style="text;html=1;align=center;verticalAlign=middle;whiteSpace=wrap;rounded=0;" vertex="1" parent="1LE-seEb9DOBYzf1abru-86">
          <mxGeometry y="21" width="60" height="30" as="geometry" />
        </mxCell>
        <mxCell id="1LE-seEb9DOBYzf1abru-93" value="" style="endArrow=classic;startArrow=classic;html=1;rounded=0;entryX=0.5;entryY=1;entryDx=0;entryDy=0;entryPerimeter=0;exitX=0.5;exitY=0;exitDx=0;exitDy=0;exitPerimeter=0;" edge="1" parent="1LE-seEb9DOBYzf1abru-86" source="1LE-seEb9DOBYzf1abru-87" target="1LE-seEb9DOBYzf1abru-91">
          <mxGeometry width="50" height="50" relative="1" as="geometry">
            <mxPoint x="280" y="170" as="sourcePoint" />
            <mxPoint x="330" y="120" as="targetPoint" />
          </mxGeometry>
        </mxCell>
        <mxCell id="1LE-seEb9DOBYzf1abru-94" value="" style="endArrow=classic;startArrow=classic;html=1;rounded=0;entryX=0.5;entryY=1;entryDx=0;entryDy=0;entryPerimeter=0;exitX=0.5;exitY=0;exitDx=0;exitDy=0;exitPerimeter=0;" edge="1" parent="1LE-seEb9DOBYzf1abru-86" source="1LE-seEb9DOBYzf1abru-88" target="1LE-seEb9DOBYzf1abru-91">
          <mxGeometry width="50" height="50" relative="1" as="geometry">
            <mxPoint x="280" y="170" as="sourcePoint" />
            <mxPoint x="330" y="120" as="targetPoint" />
          </mxGeometry>
        </mxCell>
        <mxCell id="1LE-seEb9DOBYzf1abru-114" value="" style="endArrow=classic;startArrow=classic;html=1;rounded=0;exitX=0.5;exitY=0;exitDx=0;exitDy=0;exitPerimeter=0;" edge="1" parent="1" source="1LE-seEb9DOBYzf1abru-91" target="1LE-seEb9DOBYzf1abru-20">
          <mxGeometry width="50" height="50" relative="1" as="geometry">
            <mxPoint x="560" y="359.5" as="sourcePoint" />
            <mxPoint x="610" y="309.5" as="targetPoint" />
          </mxGeometry>
        </mxCell>
        <mxCell id="1LE-seEb9DOBYzf1abru-135" value="gateway" style="text;html=1;align=center;verticalAlign=middle;whiteSpace=wrap;rounded=0;" vertex="1" parent="1">
          <mxGeometry x="174" y="132" width="60" height="30" as="geometry" />
        </mxCell>
        <mxCell id="1LE-seEb9DOBYzf1abru-19" value="Amazon EKS" style="sketch=0;outlineConnect=0;fontColor=#232F3E;gradientColor=none;strokeColor=#ffffff;fillColor=#232F3E;dashed=0;verticalLabelPosition=middle;verticalAlign=bottom;align=center;html=1;whiteSpace=wrap;fontSize=10;fontStyle=1;spacing=3;shape=mxgraph.aws4.productIcon;prIcon=mxgraph.aws4.eks;" vertex="1" parent="1">
          <mxGeometry x="640" y="41" width="80" height="100" as="geometry" />
        </mxCell>
        <mxCell id="1LE-seEb9DOBYzf1abru-20" value="Amazon API Gateway" style="sketch=0;outlineConnect=0;fontColor=#232F3E;gradientColor=none;strokeColor=#ffffff;fillColor=#232F3E;dashed=0;verticalLabelPosition=middle;verticalAlign=bottom;align=center;html=1;whiteSpace=wrap;fontSize=10;fontStyle=1;spacing=3;shape=mxgraph.aws4.productIcon;prIcon=mxgraph.aws4.api_gateway;movable=1;resizable=1;rotatable=1;deletable=1;editable=1;locked=0;connectable=1;" vertex="1" parent="1">
          <mxGeometry x="455.5" y="41" width="80" height="110" as="geometry" />
        </mxCell>
        <mxCell id="1LE-seEb9DOBYzf1abru-22" value="" style="endArrow=classic;startArrow=classic;html=1;rounded=0;fontStyle=1;entryX=0.5;entryY=0;entryDx=0;entryDy=0;entryPerimeter=0;" edge="1" parent="1" source="1LE-seEb9DOBYzf1abru-20" target="1LE-seEb9DOBYzf1abru-21">
          <mxGeometry width="50" height="50" relative="1" as="geometry">
            <mxPoint x="833.2390265486724" y="77.5" as="sourcePoint" />
            <mxPoint x="808.77" y="235.5" as="targetPoint" />
          </mxGeometry>
        </mxCell>
        <mxCell id="1LE-seEb9DOBYzf1abru-32" value="" style="sketch=0;points=[[0,0,0],[0.25,0,0],[0.5,0,0],[0.75,0,0],[1,0,0],[0,1,0],[0.25,1,0],[0.5,1,0],[0.75,1,0],[1,1,0],[0,0.25,0],[0,0.5,0],[0,0.75,0],[1,0.25,0],[1,0.5,0],[1,0.75,0]];outlineConnect=0;fontColor=#232F3E;fillColor=#7AA116;strokeColor=#ffffff;dashed=0;verticalLabelPosition=bottom;verticalAlign=top;align=center;html=1;fontSize=12;fontStyle=0;aspect=fixed;shape=mxgraph.aws4.resourceIcon;resIcon=mxgraph.aws4.s3;" vertex="1" parent="1">
          <mxGeometry x="165" y="182" width="78" height="78" as="geometry" />
        </mxCell>
        <mxCell id="1LE-seEb9DOBYzf1abru-124" value="" style="endArrow=classic;startArrow=classic;html=1;rounded=0;exitX=0.5;exitY=0;exitDx=0;exitDy=0;exitPerimeter=0;" edge="1" parent="1" source="1LE-seEb9DOBYzf1abru-100" target="1LE-seEb9DOBYzf1abru-20">
          <mxGeometry width="50" height="50" relative="1" as="geometry">
            <mxPoint x="560" y="359.5" as="sourcePoint" />
            <mxPoint x="610" y="309.5" as="targetPoint" />
          </mxGeometry>
        </mxCell>
        <mxCell id="1LE-seEb9DOBYzf1abru-125" value="" style="endArrow=classic;startArrow=classic;html=1;rounded=0;exitX=0.5;exitY=0;exitDx=0;exitDy=0;exitPerimeter=0;" edge="1" parent="1" source="1LE-seEb9DOBYzf1abru-109" target="1LE-seEb9DOBYzf1abru-20">
          <mxGeometry width="50" height="50" relative="1" as="geometry">
            <mxPoint x="560" y="359.5" as="sourcePoint" />
            <mxPoint x="610" y="309.5" as="targetPoint" />
          </mxGeometry>
        </mxCell>
        <mxCell id="1LE-seEb9DOBYzf1abru-126" value="bucket S3&lt;br&gt;front end" style="text;html=1;align=center;verticalAlign=middle;whiteSpace=wrap;rounded=0;" vertex="1" parent="1">
          <mxGeometry x="174" y="260" width="60" height="30" as="geometry" />
        </mxCell>
        <mxCell id="1LE-seEb9DOBYzf1abru-35" value="Subnet" style="sketch=0;outlineConnect=0;gradientColor=none;html=1;whiteSpace=wrap;fontSize=12;fontStyle=0;shape=mxgraph.aws4.group;grIcon=mxgraph.aws4.group_subnet;strokeColor=#879196;fillColor=none;verticalAlign=top;align=left;spacingLeft=30;fontColor=#879196;dashed=0;" vertex="1" parent="1">
          <mxGeometry x="280" y="289.5" width="600" height="220" as="geometry" />
        </mxCell>
        <mxCell id="1LE-seEb9DOBYzf1abru-134" value="" style="endArrow=none;dashed=1;html=1;dashPattern=1 3;strokeWidth=2;rounded=0;" edge="1" parent="1" source="1LE-seEb9DOBYzf1abru-35" target="1LE-seEb9DOBYzf1abru-19">
          <mxGeometry width="50" height="50" relative="1" as="geometry">
            <mxPoint x="911" y="219.5" as="sourcePoint" />
            <mxPoint x="961" y="169.5" as="targetPoint" />
          </mxGeometry>
        </mxCell>
        <mxCell id="1LE-seEb9DOBYzf1abru-140" value="Internet" style="text;html=1;align=center;verticalAlign=middle;whiteSpace=wrap;rounded=0;" vertex="1" parent="1">
          <mxGeometry x="29.75" y="141" width="60" height="30" as="geometry" />
        </mxCell>
        <mxCell id="1LE-seEb9DOBYzf1abru-95" value="" style="group" vertex="1" connectable="0" parent="1">
          <mxGeometry x="570" y="309.5" width="151" height="192" as="geometry" />
        </mxCell>
        <mxCell id="1LE-seEb9DOBYzf1abru-96" value="" style="aspect=fixed;sketch=0;html=1;dashed=0;whitespace=wrap;verticalLabelPosition=bottom;verticalAlign=top;fillColor=#2875E2;strokeColor=#ffffff;points=[[0.005,0.63,0],[0.1,0.2,0],[0.9,0.2,0],[0.5,0,0],[0.995,0.63,0],[0.72,0.99,0],[0.5,1,0],[0.28,0.99,0]];shape=mxgraph.kubernetes.icon2;prIcon=pod" vertex="1" parent="1LE-seEb9DOBYzf1abru-95">
          <mxGeometry x="31" y="120" width="50" height="48" as="geometry" />
        </mxCell>
        <mxCell id="1LE-seEb9DOBYzf1abru-97" value="" style="aspect=fixed;sketch=0;html=1;dashed=0;whitespace=wrap;verticalLabelPosition=bottom;verticalAlign=top;fillColor=#2875E2;strokeColor=#ffffff;points=[[0.005,0.63,0],[0.1,0.2,0],[0.9,0.2,0],[0.5,0,0],[0.995,0.63,0],[0.72,0.99,0],[0.5,1,0],[0.28,0.99,0]];shape=mxgraph.kubernetes.icon2;prIcon=pod" vertex="1" parent="1LE-seEb9DOBYzf1abru-95">
          <mxGeometry x="96" y="120" width="50" height="48" as="geometry" />
        </mxCell>
        <mxCell id="1LE-seEb9DOBYzf1abru-98" value="pod" style="text;html=1;align=center;verticalAlign=middle;whiteSpace=wrap;rounded=0;" vertex="1" parent="1LE-seEb9DOBYzf1abru-95">
          <mxGeometry x="26" y="162" width="60" height="30" as="geometry" />
        </mxCell>
        <mxCell id="1LE-seEb9DOBYzf1abru-99" value="pod" style="text;html=1;align=center;verticalAlign=middle;whiteSpace=wrap;rounded=0;" vertex="1" parent="1LE-seEb9DOBYzf1abru-95">
          <mxGeometry x="91" y="162" width="60" height="30" as="geometry" />
        </mxCell>
        <mxCell id="1LE-seEb9DOBYzf1abru-100" value="" style="outlineConnect=0;dashed=0;verticalLabelPosition=bottom;verticalAlign=top;align=center;html=1;shape=mxgraph.aws3.application_load_balancer;fillColor=#F58534;gradientColor=none;" vertex="1" parent="1LE-seEb9DOBYzf1abru-95">
          <mxGeometry x="60" width="69" height="72" as="geometry" />
        </mxCell>
        <mxCell id="1LE-seEb9DOBYzf1abru-101" value="payments&lt;br&gt;service" style="text;html=1;align=center;verticalAlign=middle;whiteSpace=wrap;rounded=0;" vertex="1" parent="1LE-seEb9DOBYzf1abru-95">
          <mxGeometry y="21" width="60" height="30" as="geometry" />
        </mxCell>
        <mxCell id="1LE-seEb9DOBYzf1abru-102" value="" style="endArrow=classic;startArrow=classic;html=1;rounded=0;entryX=0.5;entryY=1;entryDx=0;entryDy=0;entryPerimeter=0;exitX=0.5;exitY=0;exitDx=0;exitDy=0;exitPerimeter=0;" edge="1" parent="1LE-seEb9DOBYzf1abru-95" source="1LE-seEb9DOBYzf1abru-96" target="1LE-seEb9DOBYzf1abru-100">
          <mxGeometry width="50" height="50" relative="1" as="geometry">
            <mxPoint x="280" y="170" as="sourcePoint" />
            <mxPoint x="330" y="120" as="targetPoint" />
          </mxGeometry>
        </mxCell>
        <mxCell id="1LE-seEb9DOBYzf1abru-103" value="" style="endArrow=classic;startArrow=classic;html=1;rounded=0;entryX=0.5;entryY=1;entryDx=0;entryDy=0;entryPerimeter=0;exitX=0.5;exitY=0;exitDx=0;exitDy=0;exitPerimeter=0;" edge="1" parent="1LE-seEb9DOBYzf1abru-95" source="1LE-seEb9DOBYzf1abru-97" target="1LE-seEb9DOBYzf1abru-100">
          <mxGeometry width="50" height="50" relative="1" as="geometry">
            <mxPoint x="280" y="170" as="sourcePoint" />
            <mxPoint x="330" y="120" as="targetPoint" />
          </mxGeometry>
        </mxCell>
        <mxCell id="1LE-seEb9DOBYzf1abru-104" value="" style="group" vertex="1" connectable="0" parent="1">
          <mxGeometry x="720" y="309.5" width="160" height="192" as="geometry" />
        </mxCell>
        <mxCell id="1LE-seEb9DOBYzf1abru-105" value="" style="aspect=fixed;sketch=0;html=1;dashed=0;whitespace=wrap;verticalLabelPosition=bottom;verticalAlign=top;fillColor=#2875E2;strokeColor=#ffffff;points=[[0.005,0.63,0],[0.1,0.2,0],[0.9,0.2,0],[0.5,0,0],[0.995,0.63,0],[0.72,0.99,0],[0.5,1,0],[0.28,0.99,0]];shape=mxgraph.kubernetes.icon2;prIcon=pod" vertex="1" parent="1LE-seEb9DOBYzf1abru-104">
          <mxGeometry x="31" y="120" width="50" height="48" as="geometry" />
        </mxCell>
        <mxCell id="1LE-seEb9DOBYzf1abru-106" value="" style="aspect=fixed;sketch=0;html=1;dashed=0;whitespace=wrap;verticalLabelPosition=bottom;verticalAlign=top;fillColor=#2875E2;strokeColor=#ffffff;points=[[0.005,0.63,0],[0.1,0.2,0],[0.9,0.2,0],[0.5,0,0],[0.995,0.63,0],[0.72,0.99,0],[0.5,1,0],[0.28,0.99,0]];shape=mxgraph.kubernetes.icon2;prIcon=pod" vertex="1" parent="1LE-seEb9DOBYzf1abru-104">
          <mxGeometry x="96" y="120" width="50" height="48" as="geometry" />
        </mxCell>
        <mxCell id="1LE-seEb9DOBYzf1abru-107" value="pod" style="text;html=1;align=center;verticalAlign=middle;whiteSpace=wrap;rounded=0;" vertex="1" parent="1LE-seEb9DOBYzf1abru-104">
          <mxGeometry x="26" y="162" width="60" height="30" as="geometry" />
        </mxCell>
        <mxCell id="1LE-seEb9DOBYzf1abru-108" value="pod" style="text;html=1;align=center;verticalAlign=middle;whiteSpace=wrap;rounded=0;" vertex="1" parent="1LE-seEb9DOBYzf1abru-104">
          <mxGeometry x="91" y="162" width="60" height="30" as="geometry" />
        </mxCell>
        <mxCell id="1LE-seEb9DOBYzf1abru-109" value="" style="outlineConnect=0;dashed=0;verticalLabelPosition=bottom;verticalAlign=top;align=center;html=1;shape=mxgraph.aws3.application_load_balancer;fillColor=#F58534;gradientColor=none;" vertex="1" parent="1LE-seEb9DOBYzf1abru-104">
          <mxGeometry x="60" width="69" height="72" as="geometry" />
        </mxCell>
        <mxCell id="1LE-seEb9DOBYzf1abru-110" value="shipping&lt;br&gt;service" style="text;html=1;align=center;verticalAlign=middle;whiteSpace=wrap;rounded=0;" vertex="1" parent="1LE-seEb9DOBYzf1abru-104">
          <mxGeometry y="21" width="60" height="30" as="geometry" />
        </mxCell>
        <mxCell id="1LE-seEb9DOBYzf1abru-111" value="" style="endArrow=classic;startArrow=classic;html=1;rounded=0;entryX=0.5;entryY=1;entryDx=0;entryDy=0;entryPerimeter=0;exitX=0.5;exitY=0;exitDx=0;exitDy=0;exitPerimeter=0;" edge="1" parent="1LE-seEb9DOBYzf1abru-104" source="1LE-seEb9DOBYzf1abru-105" target="1LE-seEb9DOBYzf1abru-109">
          <mxGeometry width="50" height="50" relative="1" as="geometry">
            <mxPoint x="280" y="170" as="sourcePoint" />
            <mxPoint x="330" y="120" as="targetPoint" />
          </mxGeometry>
        </mxCell>
        <mxCell id="1LE-seEb9DOBYzf1abru-112" value="" style="endArrow=classic;startArrow=classic;html=1;rounded=0;entryX=0.5;entryY=1;entryDx=0;entryDy=0;entryPerimeter=0;exitX=0.5;exitY=0;exitDx=0;exitDy=0;exitPerimeter=0;" edge="1" parent="1LE-seEb9DOBYzf1abru-104" source="1LE-seEb9DOBYzf1abru-106" target="1LE-seEb9DOBYzf1abru-109">
          <mxGeometry width="50" height="50" relative="1" as="geometry">
            <mxPoint x="280" y="170" as="sourcePoint" />
            <mxPoint x="330" y="120" as="targetPoint" />
          </mxGeometry>
        </mxCell>
        <mxCell id="1LE-seEb9DOBYzf1abru-37" value="" style="aspect=fixed;sketch=0;html=1;dashed=0;whitespace=wrap;verticalLabelPosition=bottom;verticalAlign=top;fillColor=#2875E2;strokeColor=#ffffff;points=[[0.005,0.63,0],[0.1,0.2,0],[0.9,0.2,0],[0.5,0,0],[0.995,0.63,0],[0.72,0.99,0],[0.5,1,0],[0.28,0.99,0]];shape=mxgraph.kubernetes.icon2;prIcon=pod" vertex="1" parent="1">
          <mxGeometry x="311" y="429.5" width="50" height="48" as="geometry" />
        </mxCell>
        <mxCell id="1LE-seEb9DOBYzf1abru-38" value="" style="aspect=fixed;sketch=0;html=1;dashed=0;whitespace=wrap;verticalLabelPosition=bottom;verticalAlign=top;fillColor=#2875E2;strokeColor=#ffffff;points=[[0.005,0.63,0],[0.1,0.2,0],[0.9,0.2,0],[0.5,0,0],[0.995,0.63,0],[0.72,0.99,0],[0.5,1,0],[0.28,0.99,0]];shape=mxgraph.kubernetes.icon2;prIcon=pod" vertex="1" parent="1">
          <mxGeometry x="376" y="429.5" width="50" height="48" as="geometry" />
        </mxCell>
        <mxCell id="1LE-seEb9DOBYzf1abru-45" value="pod" style="text;html=1;align=center;verticalAlign=middle;whiteSpace=wrap;rounded=0;" vertex="1" parent="1">
          <mxGeometry x="306" y="471.5" width="60" height="30" as="geometry" />
        </mxCell>
        <mxCell id="1LE-seEb9DOBYzf1abru-57" value="pod" style="text;html=1;align=center;verticalAlign=middle;whiteSpace=wrap;rounded=0;" vertex="1" parent="1">
          <mxGeometry x="371" y="471.5" width="60" height="30" as="geometry" />
        </mxCell>
        <mxCell id="1LE-seEb9DOBYzf1abru-21" value="" style="outlineConnect=0;dashed=0;verticalLabelPosition=bottom;verticalAlign=top;align=center;html=1;shape=mxgraph.aws3.application_load_balancer;fillColor=#F58534;gradientColor=none;" vertex="1" parent="1">
          <mxGeometry x="340" y="309.5" width="69" height="72" as="geometry" />
        </mxCell>
        <mxCell id="1LE-seEb9DOBYzf1abru-48" value="orders&lt;br&gt;service" style="text;html=1;align=center;verticalAlign=middle;whiteSpace=wrap;rounded=0;" vertex="1" parent="1">
          <mxGeometry x="280" y="330.5" width="60" height="30" as="geometry" />
        </mxCell>
        <mxCell id="1LE-seEb9DOBYzf1abru-81" value="" style="endArrow=classic;startArrow=classic;html=1;rounded=0;entryX=0.5;entryY=1;entryDx=0;entryDy=0;entryPerimeter=0;exitX=0.5;exitY=0;exitDx=0;exitDy=0;exitPerimeter=0;" edge="1" parent="1" source="1LE-seEb9DOBYzf1abru-37" target="1LE-seEb9DOBYzf1abru-21">
          <mxGeometry width="50" height="50" relative="1" as="geometry">
            <mxPoint x="560" y="479.5" as="sourcePoint" />
            <mxPoint x="610" y="429.5" as="targetPoint" />
          </mxGeometry>
        </mxCell>
        <mxCell id="1LE-seEb9DOBYzf1abru-82" value="" style="endArrow=classic;startArrow=classic;html=1;rounded=0;entryX=0.5;entryY=1;entryDx=0;entryDy=0;entryPerimeter=0;exitX=0.5;exitY=0;exitDx=0;exitDy=0;exitPerimeter=0;" edge="1" parent="1" source="1LE-seEb9DOBYzf1abru-38" target="1LE-seEb9DOBYzf1abru-21">
          <mxGeometry width="50" height="50" relative="1" as="geometry">
            <mxPoint x="560" y="479.5" as="sourcePoint" />
            <mxPoint x="610" y="429.5" as="targetPoint" />
          </mxGeometry>
        </mxCell>
      </root>
    </mxGraphModel>
  </diagram>
</mxfile>
